<?xml version="1.0" encoding="UTF-8"?>
<svg width="16px" height="16px" viewBox="0 0 16 16" version="1.1" xmlns="http://www.w3.org/2000/svg" xmlns:xlink="http://www.w3.org/1999/xlink">
    <!-- Generator: Sketch 42 (36781) - http://www.bohemiancoding.com/sketch -->
    <title>instagram</title>
    <desc>Created with Sketch.</desc>
    <defs>
        <path d="M15.9999725,-3.32178729e-13 L16,16.0000275 L2.74611155e-05,15.9999451 L-1.32338585e-12,2.7461305e-05 L15.9999725,-3.32178729e-13 Z M10.2403024,3 L5.75957933,3 C4.23794821,3 3,4.23800736 3,5.75963848 L3,10.2403615 C3,11.7620518 4.23794821,13 5.75957933,13 L10.2403024,13 C11.7620518,13 13,11.7619926 13,10.2403615 L13,5.75963848 C13.0000591,4.23800736 11.7620518,3 10.2403024,3 Z M10.1788973,12 L5.82098761,12 C4.81689594,12.0000575 4,11.1830982 4,10.1789418 L4,5.82105823 C4,4.81695934 4.81689594,4 5.82098761,4 L10.1788398,4 C11.182989,4 11.9999425,4.81695934 11.9999425,5.82105823 L11.9999425,10.1789418 C12,11.1830982 11.1830465,12 10.1788973,12 Z M8,5.42337131 C6.57916031,5.42337131 5.42325301,6.57927861 5.42325301,8.0001183 C5.42325301,9.42089884 6.57916031,10.576747 8,10.576747 C9.42083969,10.576747 10.576747,9.42089884 10.576747,8.0001183 C10.576747,6.57927861 9.42083969,5.42337131 8,5.42337131 Z M8,9.68943938 C7.06844826,9.68943938 6.31050147,8.93161089 6.31050147,8.00005915 C6.31050147,7.06844826 7.06838911,6.31056062 8,6.31056062 C8.93161089,6.31056062 9.68949853,7.06844826 9.68949853,8.00005915 C9.68949853,8.93161089 8.93155174,9.68943938 8,9.68943938 Z M10.6848139,4.67104376 C10.5138707,4.67104376 10.3459441,4.74024914 10.2252192,4.86150643 C10.1039027,4.98217222 10.034165,5.15015793 10.034165,5.32169263 C10.034165,5.49269499 10.1039619,5.66062155 10.2252192,5.78187884 C10.3458849,5.90254463 10.5138707,5.97234151 10.6848139,5.97234151 C10.8563486,5.97234151 11.0237428,5.90254463 11.1450001,5.78187884 C11.2662573,5.66062155 11.3354627,5.49263584 11.3354627,5.32169263 C11.3354627,5.15015793 11.2662573,4.98217222 11.1450001,4.86150643 C11.0243343,4.74024914 10.8563486,4.67104376 10.6848139,4.67104376 Z" id="path-1"></path>
        <mask id="mask-2" maskContentUnits="userSpaceOnUse" maskUnits="objectBoundingBox" x="0" y="0" width="16" height="16.0000275" fill="white">
            <use xlink:href="#path-1"></use>
        </mask>
    </defs>
    <g id="Symbols" stroke="none" stroke-width="1" fill="none" fill-rule="evenodd">
        <g id="Icon/Social/Hover/Instagram" stroke="#000000" stroke-width="2" fill="#000000">
            <use id="instagram" mask="url(#mask-2)" xlink:href="#path-1"></use>
        </g>
    </g>
</svg>