<?xml version="1.0" encoding="UTF-8"?>
<svg width="16px" height="16px" viewBox="0 0 16 16" version="1.1" xmlns="http://www.w3.org/2000/svg" xmlns:xlink="http://www.w3.org/1999/xlink">
    <!-- Generator: Sketch 42 (36781) - http://www.bohemiancoding.com/sketch -->
    <title>pinterest</title>
    <desc>Created with Sketch.</desc>
    <defs>
        <path d="M15.9999451,-4.70734562e-13 L16,16 L5.49188823e-05,15.9998902 L1.10667031e-12,3.35188233e-09 L15.9999451,-4.70734562e-13 Z M8.24182059,3 C5.42124894,3 4,4.95165127 4,6.57866633 C4,7.5639676 4.38620955,8.44054558 5.21566984,8.76715359 C5.35123885,8.82050194 5.47383895,8.7691254 5.51285556,8.62403323 L5.63391698,8.16378049 C5.67392275,8.02066013 5.65842601,7.96983131 5.54884977,7.8446763 C5.30919982,7.5728955 5.15714492,7.22038013 5.15714492,6.72123897 C5.15714492,5.27371316 6.27928479,3.97774267 8.07926967,3.97774267 C9.67367546,3.97774267 10.5491314,4.91769236 10.5491314,6.17274784 C10.5491314,7.82424619 9.79171446,9.21842365 8.66710171,9.21842365 C8.04673751,9.21842365 7.58150557,8.72328087 7.73059301,8.11443053 C7.90869562,7.38940786 8.2548994,6.60605255 8.2548994,6.08198993 C8.2548994,5.61379519 7.99425741,5.22184367 7.45395971,5.22184367 C6.81908792,5.22184367 6.30934407,5.85561547 6.30934407,6.70475247 C6.30934407,7.24579454 6.49893185,7.61129098 6.49893185,7.61129098 L5.73503046,10.73321 C5.50840437,11.6591927 5.70150915,12.7950634 5.71750046,12.9097569 C5.72750191,12.9775651 5.81756984,12.9935039 5.85856477,12.9426751 C5.91708969,12.8688966 6.67302289,11.9678354 6.93014789,11.0673218 C7.0031804,10.8125205 7.34790045,9.49261444 7.34790045,9.49261444 C7.55402908,9.87306375 8.15686328,10.2071756 8.79772495,10.2071756 C10.7052528,10.2071756 12,8.52829102 12,6.28141635 C11.9993955,4.5826494 10.5085761,3 8.24182059,3 Z" id="path-1"></path>
        <mask id="mask-2" maskContentUnits="userSpaceOnUse" maskUnits="objectBoundingBox" x="0" y="0" width="16" height="16" fill="white">
            <use xlink:href="#path-1"></use>
        </mask>
    </defs>
    <g id="Symbols" stroke="none" stroke-width="1" fill="none" fill-rule="evenodd">
        <g id="Icon/Social/Hover/Pinterest" stroke="#000000" fill-rule="nonzero" stroke-width="2" fill="#000000">
            <use id="pinterest" mask="url(#mask-2)" xlink:href="#path-1"></use>
        </g>
    </g>
</svg>