<?xml version="1.0" encoding="UTF-8"?>
<svg width="16px" height="16px" viewBox="0 0 16 16" version="1.1" xmlns="http://www.w3.org/2000/svg" xmlns:xlink="http://www.w3.org/1999/xlink">
    <!-- Generator: Sketch 42 (36781) - http://www.bohemiancoding.com/sketch -->
    <title>twitter</title>
    <desc>Created with Sketch.</desc>
    <defs>
        <path d="M15.9999451,-4.6629367e-13 L16,16 L5.49188823e-05,15.9998902 L1.09867671e-12,3.35188233e-09 L15.9999451,-4.6629367e-13 Z M11.819869,5.26264108 C12.2640244,5.00012466 12.5644115,4.62928761 12.7209523,4.15012993 C12.314725,4.38756077 11.8811614,4.55004171 11.4201058,4.63757276 C11.0139563,4.2125754 10.5148947,4 9.92260964,4 C9.35579162,4 8.87253993,4.19684896 8.47269881,4.59062359 C8.07293557,4.98439822 7.87309289,5.46041061 7.87309289,6.01873747 C7.87309289,6.16871398 7.88999307,6.32290977 7.92387131,6.48124814 C7.08626101,6.43959226 6.30051947,6.23231016 5.5665688,5.85940182 C4.83261813,5.48641677 4.20972578,4.98953808 3.69789176,4.36868905 C3.51175614,4.6811465 3.41868833,5.02076081 3.41868833,5.38745529 C3.41868833,5.73328347 3.50116432,6.05417949 3.66619419,6.34998993 C3.83114617,6.64580037 4.05326283,6.88537921 4.33246626,7.06872645 C4.0024844,7.05622201 3.69368619,6.97076225 3.4060716,6.81242389 L3.4060716,6.83743276 C3.4060716,7.32495229 3.56152211,7.75301823 3.87242311,8.12186071 C4.18332412,8.49070318 4.57568866,8.72291745 5.04943887,8.81873364 C4.87179228,8.86453209 4.69196502,8.88746967 4.51011285,8.88746967 C4.39165583,8.88746967 4.26260699,8.87703653 4.12304421,8.85632366 C4.25419584,9.26045472 4.49531546,9.59270447 4.84640307,9.8531496 C5.19749067,10.1136715 5.59515113,10.2479215 6.03930655,10.2563601 C5.29484194,10.8312573 4.4467177,11.1187825 3.49493384,11.1187825 C3.31300379,11.1187825 3.14805181,11.1105741 3,11.0938504 C3.95178386,11.6979757 5.00084111,12 6.14724963,12 C6.87481406,12 7.55798631,11.8865395 8.19661062,11.6594651 C8.83546857,11.4323907 9.38110295,11.1282184 9.8337474,10.7468715 C10.286314,10.365678 10.6765757,9.92710221 11.0043769,9.43122081 C11.3321781,8.93541613 11.576413,8.41774786 11.7372372,7.87813929 C11.8979837,7.33845401 11.9783569,6.79792488 11.9783569,6.25616831 C11.9783569,6.13948582 11.9762541,6.05203149 11.9719706,5.99365189 C12.3739145,5.70628003 12.716591,5.35830385 13,4.95003021 C12.606623,5.11673044 12.2130902,5.22083178 11.819869,5.26264108 Z" id="path-1"></path>
        <mask id="mask-2" maskContentUnits="userSpaceOnUse" maskUnits="objectBoundingBox" x="0" y="0" width="16" height="16" fill="white">
            <use xlink:href="#path-1"></use>
        </mask>
    </defs>
    <g id="Symbols" stroke="none" stroke-width="1" fill="none" fill-rule="evenodd">
        <g id="Icon/Social/Hover/Twitter" stroke="#000000" fill-rule="nonzero" stroke-width="2" fill="#000000">
            <use id="twitter" mask="url(#mask-2)" xlink:href="#path-1"></use>
        </g>
    </g>
</svg>