<?xml version="1.0" encoding="UTF-8"?>
<svg width="16px" height="16px" viewBox="0 0 16 16" version="1.1" xmlns="http://www.w3.org/2000/svg" xmlns:xlink="http://www.w3.org/1999/xlink">
    <!-- Generator: Sketch 43.2 (39069) - http://www.bohemiancoding.com/sketch -->
    <title>Icon/Social/Black/Google Plus</title>
    <desc>Created with Sketch.</desc>
    <defs></defs>
    <g id="Symbols" stroke="none" stroke-width="1" fill="none" fill-rule="evenodd">
        <g id="Icon/Social/Black/Google-Plus">
            <rect id="Rectangle" stroke="#000000" x="0.5" y="0.5" width="15" height="15"></rect>
            <path d="M6.85937789,9.22206051 C6.72915297,9.22206051 6.62355677,9.11706323 6.62355677,8.98752362 L6.62355677,8.12808822 C6.62355677,7.99854861 6.72912897,7.89355134 6.85937789,7.89355134 L10.0370098,7.89355134 C10.0370098,7.89355134 10.0352095,8.67377324 10.0324729,8.69685927 C9.9297573,10.5382269 8.39629592,12 6.5191608,12 C4.56722736,12 2.98645293,10.4195021 3.00008754,8.47504716 C3.01360213,6.54508361 4.64901101,4.9629862 6.5892062,5.00065917 C7.49886023,5.01832583 8.32375404,5.37946584 8.93867969,5.95886076 C9.03709852,6.05158687 9.03673845,6.20765035 8.93803157,6.3000661 L8.3068068,6.89092047 C8.21647752,6.97548172 8.07667477,6.97495649 7.9848332,6.89204254 C7.59708702,6.5420755 7.08276462,6.32849987 6.5191608,6.32849987 C5.28652497,6.32849987 4.28915816,7.34968073 4.3374554,8.58608452 C4.38251202,9.73952661 5.34216762,10.6629201 6.50276566,10.6714431 C7.45927666,10.678462 8.27629697,10.0702991 8.57796268,9.22206051 L6.85937789,9.22206051 Z M12.9490309,7.97159501 L13.7933445,7.97159501 C13.9074863,7.97159501 14,8.0636049 14,8.17712515 L14,8.88388716 C14,8.9974074 13.9074863,9.08941729 13.7933445,9.08941729 L12.9490309,9.08941729 L12.9490309,9.92913288 C12.9490309,10.0426531 12.8565172,10.134663 12.7423754,10.134663 L12.0317434,10.134663 C11.9176016,10.134663 11.8250879,10.0426531 11.8250879,9.92913288 L11.8250879,9.08941729 L10.9807744,9.08941729 C10.8666325,9.08941729 10.7741188,8.9974074 10.7741188,8.88388716 L10.7741188,8.17712515 C10.7741188,8.0636049 10.8666325,7.97159501 10.9807744,7.97159501 L11.8250879,7.97159501 L11.8250879,7.13187943 C11.8250879,7.01835918 11.9176016,6.92634929 12.0317434,6.92634929 L12.7423754,6.92634929 C12.8565172,6.92634929 12.9490309,7.01835918 12.9490309,7.13187943 L12.9490309,7.97159501 Z" id="google" fill="#000000" fill-rule="nonzero"></path>
        </g>
    </g>
</svg>