<?xml version="1.0" encoding="UTF-8"?>
<svg width="16px" height="16px" viewBox="0 0 16 16" version="1.1" xmlns="http://www.w3.org/2000/svg" xmlns:xlink="http://www.w3.org/1999/xlink">
    <!-- Generator: Sketch 43.2 (39069) - http://www.bohemiancoding.com/sketch -->
    <title>Icon/Social/Black/Whatsapp</title>
    <desc>Created with Sketch.</desc>
    <defs></defs>
    <g id="Symbols" stroke="none" stroke-width="1" fill="none" fill-rule="evenodd">
        <g id="Icon/Social/Black/Whatsapp">
            <rect id="Rectangle" stroke="#000000" x="0.5" y="0.5" width="15" height="15"></rect>
            <g id="Capa_1" transform="translate(2.000000, 3.000000)" fill="#000000">
                <path d="M8.56988889,5.99311111 C8.53955556,5.94344444 8.45944444,5.91344444 8.33922222,5.85377778 C8.21877778,5.79411111 7.627,5.50511111 7.517,5.46544444 C7.40666667,5.42566667 7.32622222,5.40566667 7.24611111,5.52511111 C7.166,5.64466667 6.93533333,5.91344444 6.865,5.99311111 C6.79477778,6.073 6.72466667,6.083 6.60422222,6.02322222 C6.484,5.96355556 6.09633333,5.83733333 5.63666667,5.43066667 C5.279,5.11422222 5.03744444,4.72355556 4.96722222,4.60388889 C4.89711111,4.48444444 4.95988889,4.41988889 5.02,4.36044444 C5.07422222,4.30688889 5.14044444,4.221 5.20055556,4.15133333 C5.26088889,4.08155556 5.28088889,4.03188889 5.32077778,3.95211111 C5.36111111,3.87244444 5.341,3.80277778 5.31077778,3.74288889 C5.28077778,3.68322222 5.03988889,3.09566667 4.93966667,2.85655556 C4.83944444,2.61766667 4.73933333,2.65744444 4.669,2.65744444 C4.59888889,2.65744444 4.51855556,2.64744444 4.43833333,2.64744444 C4.35811111,2.64744444 4.22766667,2.67733333 4.11733333,2.79677778 C4.00711111,2.91633333 3.69633333,3.20522222 3.69633333,3.79266667 C3.69633333,4.38022222 4.12733333,4.94788889 4.18766667,5.02744444 C4.24777778,5.107 5.01988889,6.35188889 6.24322222,6.83 C7.46666667,7.30788889 7.46666667,7.14844444 7.68733333,7.12844444 C7.90777778,7.10855556 8.39911111,6.83966667 8.49977778,6.561 C8.59977778,6.28188889 8.59977778,6.04288889 8.56988889,5.99311111 Z" id="WhatsApp-path"></path>
                <path d="M0.680073031,10.3508221 L1.6595092,7.46189699 C1.23121263,6.71952506 1,5.8745831 1,4.99762517 C1,2.25501574 3.24369511,0.028583671 5.99994616,0.028583671 C8.75611014,0.028583671 11,2.25525166 11,4.99784053 C11,7.74032784 8.75610566,9.96666667 6.00005384,9.96666667 C5.18012051,9.96666667 4.38737473,9.76850175 3.67865887,9.39778649 L0.680073031,10.3508221 Z M5.99994616,1.02858367 C3.79419326,1.02858367 2,2.80910135 2,4.99762517 C2,5.86607846 2.28309531,6.67035342 2.76195604,7.32462771 L2.26220505,8.79868314 L3.79936199,8.31013106 C4.43091543,8.72481346 5.18748738,8.96666667 6.00005384,8.96666667 C8.20548369,8.96666667 10,7.18636435 10,4.99784053 C10,2.80931671 8.20559137,1.02858367 5.99994616,1.02858367 Z" id="Combined-Shape"></path>
            </g>
        </g>
    </g>
</svg>